<?xml version="1.0" encoding="UTF-8"?>
<!DOCTYPE svg PUBLIC "-//W3C//DTD SVG 1.1//EN" "http://www.w3.org/Graphics/SVG/1.1/DTD/svg11.dtd">
<svg xmlns="http://www.w3.org/2000/svg" version="1.1" width="307px" height="374px" style="shape-rendering:geometricPrecision; text-rendering:geometricPrecision; image-rendering:optimizeQuality; fill-rule:evenodd; clip-rule:evenodd" xmlns:xlink="http://www.w3.org/1999/xlink">
<g><path style="opacity:1" fill="#fcfcfc" d="M 128.5,-0.5 C 137.5,-0.5 146.5,-0.5 155.5,-0.5C 155.5,3.16667 155.5,6.83333 155.5,10.5C 154.209,10.2627 153.209,10.596 152.5,11.5C 143.789,13.2827 137.623,18.2827 134,26.5C 131.314,35.2028 132.481,43.2028 137.5,50.5C 138.614,53.4036 140.614,55.4036 143.5,56.5C 144.975,58.4095 146.975,59.5762 149.5,60C 157.245,60.1994 164.912,60.6994 172.5,61.5C 175.96,62.9011 178.626,65.2344 180.5,68.5C 180.5,72.8333 180.5,77.1667 180.5,81.5C 181.5,81.5 182.5,81.5 183.5,81.5C 187.5,81.5 191.5,81.5 195.5,81.5C 196.93,82.5375 198.597,83.2041 200.5,83.5C 202.139,84.4725 203.473,85.8058 204.5,87.5C 205.234,88.7079 205.567,90.0413 205.5,91.5C 205.334,101.172 205.5,110.839 206,120.5C 206.383,121.056 206.883,121.389 207.5,121.5C 207.833,121.5 208.167,121.5 208.5,121.5C 208.833,121.5 209.167,121.5 209.5,121.5C 210.833,121.5 212.167,121.5 213.5,121.5C 219.69,120.268 224.357,122.268 227.5,127.5C 228.03,130.716 228.696,133.883 229.5,137C 233.027,137.808 236.36,137.641 239.5,136.5C 242.691,118.643 253.358,109.976 271.5,110.5C 275.458,112.156 279.458,113.823 283.5,115.5C 285.5,117.833 287.5,120.167 289.5,122.5C 291.839,126.009 293.506,129.842 294.5,134C 297.817,134.498 301.15,134.665 304.5,134.5C 304.5,90.8333 304.5,47.1667 304.5,3.5C 304.5,2.16667 304.5,0.833333 304.5,-0.5C 305.167,-0.5 305.833,-0.5 306.5,-0.5C 306.5,124.167 306.5,248.833 306.5,373.5C 283.833,373.5 261.167,373.5 238.5,373.5C 241.774,372.12 245.107,370.62 248.5,369C 251.653,366.195 253.319,362.695 253.5,358.5C 254.166,353.511 254.499,348.344 254.5,343C 254.495,337.454 253.828,332.288 252.5,327.5C 248.167,327.5 243.833,327.5 239.5,327.5C 239.923,337.58 239.423,347.58 238,357.5C 235.016,360.291 232.516,359.958 230.5,356.5C 231.14,346.442 230.473,336.775 228.5,327.5C 224.167,327.5 219.833,327.5 215.5,327.5C 215.333,338.172 215.5,348.839 216,359.5C 217.245,365.572 220.745,369.572 226.5,371.5C 227.5,372.167 228.5,372.833 229.5,373.5C 217.167,373.5 204.833,373.5 192.5,373.5C 206.23,368.538 211.563,359.205 208.5,345.5C 201.167,345.5 193.833,345.5 186.5,345.5C 186.5,348.5 186.5,351.5 186.5,354.5C 188.305,356.197 190.639,357.03 193.5,357C 189.362,360.386 185.362,360.219 181.5,356.5C 181.167,355.167 180.833,353.833 180.5,352.5C 179.078,344.944 182.078,340.944 189.5,340.5C 190.609,340.557 191.609,340.89 192.5,341.5C 192.811,342.478 193.478,343.145 194.5,343.5C 198.874,341.764 203.207,339.931 207.5,338C 206.267,336.333 204.933,334.833 203.5,333.5C 194.234,325.249 184.234,324.416 173.5,331C 161.577,343.635 161.577,356.301 173.5,369C 175.407,370.122 177.407,370.955 179.5,371.5C 180.167,372.167 180.833,372.833 181.5,373.5C 140.167,373.5 98.8333,373.5 57.5,373.5C 63.8923,372.285 68.3923,368.618 71,362.5C 72.0794,356.063 72.5794,349.563 72.5,343C 72.4946,337.454 71.8279,332.288 70.5,327.5C 66.1667,327.5 61.8333,327.5 57.5,327.5C 57.6665,336.839 57.4998,346.173 57,355.5C 56.2081,359.409 54.0414,360.409 50.5,358.5C 50.2172,357.711 49.7172,357.044 49,356.5C 48.83,346.658 48.33,336.991 47.5,327.5C 42.8333,327.5 38.1667,327.5 33.5,327.5C 33.1722,338.346 33.5056,349.013 34.5,359.5C 35.3099,365.64 38.6433,369.64 44.5,371.5C 45.5,372.167 46.5,372.833 47.5,373.5C 31.5,373.5 15.5,373.5 -0.5,373.5C -0.5,354.167 -0.5,334.833 -0.5,315.5C 0.166667,315.5 0.833333,315.5 1.5,315.5C 49.8333,315.5 98.1667,315.5 146.5,315.5C 146.5,312.167 146.5,308.833 146.5,305.5C 147.209,304.596 148.209,304.263 149.5,304.5C 162.788,302.201 169.788,294.201 170.5,280.5C 170.369,276.465 169.369,272.798 167.5,269.5C 167.672,268.508 167.338,267.842 166.5,267.5C 162.547,260.518 156.547,256.518 148.5,255.5C 147.209,255.737 146.209,255.404 145.5,254.5C 145.5,251.5 145.5,248.5 145.5,245.5C 145.714,243.856 145.38,242.356 144.5,241C 136.453,240.771 128.453,240.271 120.5,239.5C 119.5,238.833 118.5,238.167 117.5,237.5C 115.515,233.941 115.182,230.274 116.5,226.5C 118.582,225.415 118.916,223.915 117.5,222C 110.842,221.5 104.175,221.334 97.5,221.5C 96.609,220.89 95.609,220.557 94.5,220.5C 93.8333,220.167 93.1667,219.833 92.5,219.5C 92.4431,218.391 92.1098,217.391 91.5,216.5C 91.8032,207.749 91.4699,199.082 90.5,190.5C 90.2671,188.938 89.6005,187.605 88.5,186.5C 87.8658,185.053 86.6991,184.387 85,184.5C 82.2077,185.216 79.3743,185.549 76.5,185.5C 75.8333,185.167 75.1667,184.833 74.5,184.5C 73.8333,183.167 72.8333,182.167 71.5,181.5C 71.5858,180.504 71.2524,179.671 70.5,179C 66.1794,178.501 61.8461,178.334 57.5,178.5C 56.0176,196.316 46.351,204.983 28.5,204.5C 24.441,203.636 20.7743,201.97 17.5,199.5C 16.5,198.833 15.5,198.167 14.5,197.5C 11.7412,193.575 9.74116,189.242 8.5,184.5C 8.5,183.5 8.5,182.5 8.5,181.5C 5.5,181.5 2.5,181.5 -0.5,181.5C -0.5,169.833 -0.5,158.167 -0.5,146.5C 1.5,146.5 3.5,146.5 5.5,146.5C 6.5,146.5 7.5,146.5 8.5,146.5C 9.1377,151.19 9.97103,155.856 11,160.5C 12.371,163.266 14.2043,165.599 16.5,167.5C 18.1852,169.818 20.5185,170.818 23.5,170.5C 37.2048,174.531 47.7048,170.197 55,157.5C 56.6307,153.312 57.4641,148.979 57.5,144.5C 61.1667,144.5 64.8333,144.5 68.5,144.5C 65.7044,127.466 72.8711,119.466 90,120.5C 90.043,109.07 90.7097,97.7365 92,86.5C 93.5429,84.6217 95.3762,83.1217 97.5,82C 103.825,81.5005 110.158,81.3338 116.5,81.5C 116.335,77.8183 116.501,74.1516 117,70.5C 117.935,67.4048 119.769,65.0714 122.5,63.5C 124.512,62.7717 126.512,61.9383 128.5,61C 125.618,60.7276 122.951,59.8943 120.5,58.5C 117.214,56.5488 114.214,54.2154 111.5,51.5C 111.025,49.2163 110.025,47.2163 108.5,45.5C 103.757,27.3157 110.257,15.3157 128,9.5C 128.495,7.5273 128.662,5.5273 128.5,3.5C 128.5,2.16667 128.5,0.833333 128.5,-0.5 Z"/></g>
<g><path style="opacity:1" fill="#ccddef" d="M 155.5,-0.5 C 205.167,-0.5 254.833,-0.5 304.5,-0.5C 304.5,0.833333 304.5,2.16667 304.5,3.5C 304.167,3.5 303.833,3.5 303.5,3.5C 303.5,3.16667 303.5,2.83333 303.5,2.5C 254.845,0.504675 205.845,-0.161992 156.5,0.5C 156.5,4.16667 156.5,7.83333 156.5,11.5C 155.167,11.5 153.833,11.5 152.5,11.5C 153.209,10.596 154.209,10.2627 155.5,10.5C 155.5,6.83333 155.5,3.16667 155.5,-0.5 Z"/></g>
<g><path style="opacity:1" fill="#95c0e1" d="M 303.5,2.5 C 255.5,2.5 207.5,2.5 159.5,2.5C 159.665,5.8499 159.498,9.18323 159,12.5C 155.288,13.8608 151.788,15.5275 148.5,17.5C 147.5,17.8333 146.833,18.5 146.5,19.5C 137.035,25.1187 133.535,33.4521 136,44.5C 136.813,46.4357 137.313,48.4357 137.5,50.5C 132.481,43.2028 131.314,35.2028 134,26.5C 137.623,18.2827 143.789,13.2827 152.5,11.5C 153.833,11.5 155.167,11.5 156.5,11.5C 156.5,7.83333 156.5,4.16667 156.5,0.5C 205.845,-0.161992 254.845,0.504675 303.5,2.5 Z"/></g>
<g><path style="opacity:1" fill="#4c9ed5" d="M 303.5,2.5 C 303.5,2.83333 303.5,3.16667 303.5,3.5C 303.5,3.83333 303.5,4.16667 303.5,4.5C 302.5,4.5 301.5,4.5 300.5,4.5C 299.5,4.5 298.5,4.5 297.5,4.5C 251.833,4.5 206.167,4.5 160.5,4.5C 160.665,7.51838 160.498,10.5184 160,13.5C 156.38,15.2656 152.546,16.599 148.5,17.5C 151.788,15.5275 155.288,13.8608 159,12.5C 159.498,9.18323 159.665,5.8499 159.5,2.5C 207.5,2.5 255.5,2.5 303.5,2.5 Z"/></g>
<g><path style="opacity:1" fill="#eceab1" d="M -0.5,-0.5 C 42.5,-0.5 85.5,-0.5 128.5,-0.5C 128.5,0.833333 128.5,2.16667 128.5,3.5C 127.167,3.5 125.833,3.5 124.5,3.5C 124.389,2.88258 124.056,2.38258 123.5,2C 83.1667,1.33333 42.8333,1.33333 2.5,2C 2,2.5 1.5,3 1,3.5C 0.168495,49.3352 0.335162,95.0018 1.5,140.5C 1.32842,141.492 1.66175,142.158 2.5,142.5C 2.5,143.5 2.5,144.5 2.5,145.5C 3.79105,145.263 4.79105,145.596 5.5,146.5C 3.5,146.5 1.5,146.5 -0.5,146.5C -0.5,97.5 -0.5,48.5 -0.5,-0.5 Z"/></g>
<g><path style="opacity:1" fill="#edea94" d="M 124.5,3.5 C 124.167,3.5 123.833,3.5 123.5,3.5C 122.833,3.5 122.167,3.5 121.5,3.5C 81.5942,3.17008 41.7608,3.50341 2,4.5C 1.50001,49.8321 1.33334,95.1654 1.5,140.5C 0.335162,95.0018 0.168495,49.3352 1,3.5C 1.5,3 2,2.5 2.5,2C 42.8333,1.33333 83.1667,1.33333 123.5,2C 124.056,2.38258 124.389,2.88258 124.5,3.5 Z"/></g>
<g><path style="opacity:1" fill="#e9e467" d="M 121.5,3.5 C 121.5,3.83333 121.5,4.16667 121.5,4.5C 120.833,4.5 120.167,4.5 119.5,4.5C 80.8333,4.5 42.1667,4.5 3.5,4.5C 3.83211,50.6697 3.49877,96.6697 2.5,142.5C 1.66175,142.158 1.32842,141.492 1.5,140.5C 1.33334,95.1654 1.50001,49.8321 2,4.5C 41.7608,3.50341 81.5942,3.17008 121.5,3.5 Z"/></g>
<g><path style="opacity:1" fill="#0080ca" d="M 297.5,4.5 C 297.667,44.8347 297.5,85.168 297,125.5C 296.722,126.416 296.222,127.082 295.5,127.5C 294.115,125.117 292.115,123.45 289.5,122.5C 287.5,120.167 285.5,117.833 283.5,115.5C 276.276,106.774 267.11,104.107 256,107.5C 244.253,112.082 236.42,120.415 232.5,132.5C 231.105,129.858 229.605,127.191 228,124.5C 226.001,122.747 223.835,121.413 221.5,120.5C 221.056,118.887 220.056,117.72 218.5,117C 215.854,116.503 213.187,116.336 210.5,116.5C 210.666,108.16 210.5,99.8267 210,91.5C 208.521,86.8421 205.354,84.1754 200.5,83.5C 198.597,83.2041 196.93,82.5375 195.5,81.5C 196.239,81.631 196.906,81.4643 197.5,81C 193.045,79.0762 188.378,77.9095 183.5,77.5C 183.862,73.919 182.862,70.919 180.5,68.5C 178.626,65.2344 175.96,62.9011 172.5,61.5C 173.552,61.6495 174.552,61.4828 175.5,61C 173.833,60 172.167,59 170.5,58C 162.147,57.8317 153.813,57.3317 145.5,56.5C 146.025,55.8076 146.692,55.3076 147.5,55C 145.655,53.872 143.655,53.372 141.5,53.5C 137.789,46.3197 136.622,38.653 138,30.5C 140.255,26.4083 143.089,22.7416 146.5,19.5C 146.833,18.5 147.5,17.8333 148.5,17.5C 152.546,16.599 156.38,15.2656 160,13.5C 160.498,10.5184 160.665,7.51838 160.5,4.5C 206.167,4.5 251.833,4.5 297.5,4.5 Z"/></g>
<g><path style="opacity:1" fill="#e3de34" d="M 114.5,5.5 C 99.0657,16.1915 94.899,30.5248 102,48.5C 105.207,52.5043 108.707,56.1709 112.5,59.5C 110.147,63.8912 108.813,68.5579 108.5,73.5C 98.8099,71.9549 90.6432,74.6216 84,81.5C 82.5688,92.4225 82.0688,103.422 82.5,114.5C 75.9634,113.939 70.9634,116.272 67.5,121.5C 64.9042,127.214 63.2375,133.214 62.5,139.5C 59.1934,139.063 56.1934,139.73 53.5,141.5C 52.1444,148.223 49.6444,154.556 46,160.5C 41.3491,165.323 35.6824,167.323 29,166.5C 24.8081,166.342 20.6414,166.009 16.5,165.5C 16.5,165.167 16.5,164.833 16.5,164.5C 15.3454,159.238 14.512,153.904 14,148.5C 11.0151,147.102 8.84848,144.936 7.5,142C 6.55198,141.517 5.55198,141.351 4.5,141.5C 4.5,96.1667 4.5,50.8333 4.5,5.5C 41.1667,5.5 77.8333,5.5 114.5,5.5 Z"/></g>
<g><path style="opacity:1" fill="#006fb0" d="M 297.5,4.5 C 298.5,4.5 299.5,4.5 300.5,4.5C 300.144,46.5415 299.144,88.5415 297.5,130.5C 297.167,130.5 296.833,130.5 296.5,130.5C 295.89,129.609 295.557,128.609 295.5,127.5C 296.222,127.082 296.722,126.416 297,125.5C 297.5,85.168 297.667,44.8347 297.5,4.5 Z"/></g>
<g><path style="opacity:1" fill="#005b92" d="M 300.5,4.5 C 301.5,4.5 302.5,4.5 303.5,4.5C 303.5,4.83333 303.5,5.16667 303.5,5.5C 301.671,45.821 300.838,86.4877 301,127.5C 300.385,129.116 299.385,130.449 298,131.5C 297.601,131.272 297.435,130.938 297.5,130.5C 299.144,88.5415 300.144,46.5415 300.5,4.5 Z"/></g>
<g><path style="opacity:1" fill="#014a76" d="M 303.5,5.5 C 303.5,48.1667 303.5,90.8333 303.5,133.5C 301.167,133.5 298.833,133.5 296.5,133.5C 296.5,132.5 296.5,131.5 296.5,130.5C 296.833,130.5 297.167,130.5 297.5,130.5C 297.435,130.938 297.601,131.272 298,131.5C 299.385,130.449 300.385,129.116 301,127.5C 300.838,86.4877 301.671,45.821 303.5,5.5 Z"/></g>
<g><path style="opacity:1" fill="#7ba2b7" d="M 303.5,3.5 C 303.833,3.5 304.167,3.5 304.5,3.5C 304.5,47.1667 304.5,90.8333 304.5,134.5C 301.15,134.665 297.817,134.498 294.5,134C 293.506,129.842 291.839,126.009 289.5,122.5C 292.115,123.45 294.115,125.117 295.5,127.5C 295.557,128.609 295.89,129.609 296.5,130.5C 296.5,131.5 296.5,132.5 296.5,133.5C 298.833,133.5 301.167,133.5 303.5,133.5C 303.5,90.8333 303.5,48.1667 303.5,5.5C 303.5,5.16667 303.5,4.83333 303.5,4.5C 303.5,4.16667 303.5,3.83333 303.5,3.5 Z"/></g>
<g><path style="opacity:1" fill="#e3de48" d="M 119.5,4.5 C 118.081,5.45115 116.415,5.78448 114.5,5.5C 77.8333,5.5 41.1667,5.5 4.5,5.5C 4.5,50.8333 4.5,96.1667 4.5,141.5C 5.55198,141.351 6.55198,141.517 7.5,142C 8.84848,144.936 11.0151,147.102 14,148.5C 14.512,153.904 15.3454,159.238 16.5,164.5C 14.8267,163.657 13.66,162.324 13,160.5C 12.4042,155.418 10.9042,150.751 8.5,146.5C 7.5,146.5 6.5,146.5 5.5,146.5C 4.79105,145.596 3.79105,145.263 2.5,145.5C 2.5,144.5 2.5,143.5 2.5,142.5C 3.49877,96.6697 3.83211,50.6697 3.5,4.5C 42.1667,4.5 80.8333,4.5 119.5,4.5 Z"/></g>
<g><path style="opacity:1" fill="#8a8626" d="M 123.5,3.5 C 123.833,3.5 124.167,3.5 124.5,3.5C 125.833,3.5 127.167,3.5 128.5,3.5C 128.662,5.5273 128.495,7.5273 128,9.5C 110.257,15.3157 103.757,27.3157 108.5,45.5C 106.883,43.8791 105.716,41.8791 105,39.5C 103.648,24.6017 109.648,13.6017 123,6.5C 123.483,5.55198 123.649,4.55198 123.5,3.5 Z"/></g>
<g><path style="opacity:1" fill="#3e96cf" d="M 146.5,19.5 C 143.089,22.7416 140.255,26.4083 138,30.5C 136.622,38.653 137.789,46.3197 141.5,53.5C 142.551,54.2223 143.218,55.2223 143.5,56.5C 140.614,55.4036 138.614,53.4036 137.5,50.5C 137.313,48.4357 136.813,46.4357 136,44.5C 133.535,33.4521 137.035,25.1187 146.5,19.5 Z"/></g>
<g><path style="opacity:1" fill="#afaa29" d="M 121.5,3.5 C 122.167,3.5 122.833,3.5 123.5,3.5C 123.649,4.55198 123.483,5.55198 123,6.5C 109.648,13.6017 103.648,24.6017 105,39.5C 105.716,41.8791 106.883,43.8791 108.5,45.5C 110.025,47.2163 111.025,49.2163 111.5,51.5C 105.723,48.7685 102.556,44.1019 102,37.5C 100.491,30.2003 101.824,23.5337 106,17.5C 110.526,12.1182 115.693,7.78482 121.5,4.5C 121.5,4.16667 121.5,3.83333 121.5,3.5 Z"/></g>
<g><path style="opacity:1" fill="#0a598c" d="M 141.5,53.5 C 143.655,53.372 145.655,53.872 147.5,55C 146.692,55.3076 146.025,55.8076 145.5,56.5C 153.813,57.3317 162.147,57.8317 170.5,58C 172.167,59 173.833,60 175.5,61C 174.552,61.4828 173.552,61.6495 172.5,61.5C 164.912,60.6994 157.245,60.1994 149.5,60C 146.975,59.5762 144.975,58.4095 143.5,56.5C 143.218,55.2223 142.551,54.2223 141.5,53.5 Z"/></g>
<g><path style="opacity:1" fill="#aeab70" d="M 120.5,58.5 C 122.951,59.8943 125.618,60.7276 128.5,61C 126.512,61.9383 124.512,62.7717 122.5,63.5C 122.5,62.8333 122.167,62.5 121.5,62.5C 121.167,61.1667 120.833,59.8333 120.5,58.5 Z"/></g>
<g><path style="opacity:1" fill="#8cb5d4" d="M 180.5,68.5 C 182.862,70.919 183.862,73.919 183.5,77.5C 183.5,78.8333 183.5,80.1667 183.5,81.5C 182.5,81.5 181.5,81.5 180.5,81.5C 180.5,77.1667 180.5,72.8333 180.5,68.5 Z"/></g>
<g><path style="opacity:1" fill="#125e8f" d="M 183.5,77.5 C 188.378,77.9095 193.045,79.0762 197.5,81C 196.906,81.4643 196.239,81.631 195.5,81.5C 191.5,81.5 187.5,81.5 183.5,81.5C 183.5,80.1667 183.5,78.8333 183.5,77.5 Z"/></g>
<g><path style="opacity:1" fill="#9f9a29" d="M 111.5,51.5 C 114.214,54.2154 117.214,56.5488 120.5,58.5C 120.833,59.8333 121.167,61.1667 121.5,62.5C 120.448,62.3505 119.448,62.5172 118.5,63C 115.019,67.1022 113.519,71.9356 114,77.5C 113.5,78 113,78.5 112.5,79C 105.893,80.1641 99.2268,80.9974 92.5,81.5C 93.347,80.0337 94.6803,79.2004 96.5,79C 101.202,78.8283 105.868,78.3283 110.5,77.5C 112.454,74.1348 113.454,70.4681 113.5,66.5C 115.624,64.9408 117.291,62.9408 118.5,60.5C 115.737,57.7485 113.403,54.7485 111.5,51.5 Z"/></g>
<g><path style="opacity:1" fill="#d6d030" d="M 119.5,4.5 C 120.167,4.5 120.833,4.5 121.5,4.5C 115.693,7.78482 110.526,12.1182 106,17.5C 101.824,23.5337 100.491,30.2003 102,37.5C 102.556,44.1019 105.723,48.7685 111.5,51.5C 113.403,54.7485 115.737,57.7485 118.5,60.5C 117.291,62.9408 115.624,64.9408 113.5,66.5C 112.372,69.8362 111.039,73.1696 109.5,76.5C 104.533,77.329 99.5329,77.829 94.5,78C 90.7403,79.4612 87.9069,81.9612 86,85.5C 85.8321,95.1838 85.3321,104.851 84.5,114.5C 81.3831,115.984 78.0498,116.984 74.5,117.5C 72.1356,118.838 69.8023,120.171 67.5,121.5C 70.9634,116.272 75.9634,113.939 82.5,114.5C 82.0688,103.422 82.5688,92.4225 84,81.5C 90.6432,74.6216 98.8099,71.9549 108.5,73.5C 108.813,68.5579 110.147,63.8912 112.5,59.5C 108.707,56.1709 105.207,52.5043 102,48.5C 94.899,30.5248 99.0657,16.1915 114.5,5.5C 116.415,5.78448 118.081,5.45115 119.5,4.5 Z"/></g>
<g><path style="opacity:1" fill="#abcbe3" d="M 205.5,91.5 C 206.267,101.349 206.934,111.349 207.5,121.5C 206.883,121.389 206.383,121.056 206,120.5C 205.5,110.839 205.334,101.172 205.5,91.5 Z"/></g>
<g><path style="opacity:1" fill="#b6b126" d="M 113.5,66.5 C 113.454,70.4681 112.454,74.1348 110.5,77.5C 105.868,78.3283 101.202,78.8283 96.5,79C 94.6803,79.2004 93.347,80.0337 92.5,81.5C 90.2598,82.5676 88.4264,84.2342 87,86.5C 86.8092,96.5469 86.3092,106.547 85.5,116.5C 80.592,118.046 75.592,119.546 70.5,121C 68.8588,122.129 67.8588,123.629 67.5,125.5C 65.845,130.256 65.0117,135.256 65,140.5C 61.9472,141.648 59.1138,142.981 56.5,144.5C 54.0615,149.377 51.5615,154.377 49,159.5C 40.1012,169.629 29.2678,172.296 16.5,167.5C 16.5,166.833 16.5,166.167 16.5,165.5C 20.6414,166.009 24.8081,166.342 29,166.5C 35.6824,167.323 41.3491,165.323 46,160.5C 49.6444,154.556 52.1444,148.223 53.5,141.5C 56.1934,139.73 59.1934,139.063 62.5,139.5C 63.2375,133.214 64.9042,127.214 67.5,121.5C 69.8023,120.171 72.1356,118.838 74.5,117.5C 78.0498,116.984 81.3831,115.984 84.5,114.5C 85.3321,104.851 85.8321,95.1838 86,85.5C 87.9069,81.9612 90.7403,79.4612 94.5,78C 99.5329,77.829 104.533,77.329 109.5,76.5C 111.039,73.1696 112.372,69.8362 113.5,66.5 Z"/></g>
<g><path style="opacity:1" fill="#7db4dc" d="M 204.5,87.5 C 206.017,87.5106 207.184,88.1772 208,89.5C 208.5,100.161 208.667,110.828 208.5,121.5C 208.167,121.5 207.833,121.5 207.5,121.5C 206.934,111.349 206.267,101.349 205.5,91.5C 205.567,90.0413 205.234,88.7079 204.5,87.5 Z"/></g>
<g><path style="opacity:1" fill="#3c94cd" d="M 200.5,83.5 C 205.354,84.1754 208.521,86.8421 210,91.5C 210.5,99.8267 210.666,108.16 210.5,116.5C 209.549,117.919 209.216,119.585 209.5,121.5C 209.167,121.5 208.833,121.5 208.5,121.5C 208.667,110.828 208.5,100.161 208,89.5C 207.184,88.1772 206.017,87.5106 204.5,87.5C 203.473,85.8058 202.139,84.4725 200.5,83.5 Z"/></g>
<g><path style="opacity:1" fill="#88898f" d="M 136.5,101.5 C 146.599,101.256 156.599,102.089 166.5,104C 174.163,105.837 179.497,110.337 182.5,117.5C 182.061,119.104 181.394,120.604 180.5,122C 182.897,127.192 184.897,132.525 186.5,138C 184.972,140.281 184.472,142.781 185,145.5C 188.181,150.538 191.348,155.538 194.5,160.5C 193.588,163.3 191.588,164.633 188.5,164.5C 190.368,170.012 189.535,175.012 186,179.5C 185.84,183.287 185.174,186.954 184,190.5C 183.097,191.701 181.931,192.535 180.5,193C 175.249,193.804 170.082,193.637 165,192.5C 164.778,199.096 164.612,205.596 164.5,212C 152.511,216.223 141.177,214.89 130.5,208C 126.367,204.869 122.534,201.369 119,197.5C 120.213,190.928 120.546,184.262 120,177.5C 111.621,163.268 107.954,147.934 109,131.5C 112.173,115.834 121.339,105.834 136.5,101.5 Z"/></g>
<g><path style="opacity:1" fill="#06639c" d="M 283.5,115.5 C 279.458,113.823 275.458,112.156 271.5,110.5C 272.552,110.649 273.552,110.483 274.5,110C 267.006,107.681 259.672,108.015 252.5,111C 244.45,116.381 238.617,123.548 235,132.5C 234.329,133.252 233.496,133.586 232.5,133.5C 232.5,133.167 232.5,132.833 232.5,132.5C 236.42,120.415 244.253,112.082 256,107.5C 267.11,104.107 276.276,106.774 283.5,115.5 Z"/></g>
<g><path style="opacity:1" fill="#98941e" d="M 92.5,81.5 C 91.343,83.1376 90.1764,84.8043 89,86.5C 88.6667,96.8333 88.3333,107.167 88,117.5C 87.1667,118.333 86.3333,119.167 85.5,120C 81.8333,120.333 78.1667,120.667 74.5,121C 72.3171,122.777 69.9838,124.277 67.5,125.5C 67.8588,123.629 68.8588,122.129 70.5,121C 75.592,119.546 80.592,118.046 85.5,116.5C 86.3092,106.547 86.8092,96.5469 87,86.5C 88.4264,84.2342 90.2598,82.5676 92.5,81.5 Z"/></g>
<g><path style="opacity:1" fill="#085d91" d="M 210.5,116.5 C 213.187,116.336 215.854,116.503 218.5,117C 220.056,117.72 221.056,118.887 221.5,120.5C 218.615,120.194 215.948,120.527 213.5,121.5C 212.167,121.5 210.833,121.5 209.5,121.5C 209.216,119.585 209.549,117.919 210.5,116.5 Z"/></g>
<g><path style="opacity:1" fill="#5897c4" d="M 213.5,121.5 C 215.948,120.527 218.615,120.194 221.5,120.5C 223.835,121.413 226.001,122.747 228,124.5C 229.605,127.191 231.105,129.858 232.5,132.5C 232.5,132.833 232.5,133.167 232.5,133.5C 232.5,134.5 232.5,135.5 232.5,136.5C 230.948,133.527 229.281,130.527 227.5,127.5C 224.357,122.268 219.69,120.268 213.5,121.5 Z"/></g>
<g><path style="opacity:1" fill="#0e507d" d="M 271.5,110.5 C 253.358,109.976 242.691,118.643 239.5,136.5C 237.167,136.5 234.833,136.5 232.5,136.5C 232.5,135.5 232.5,134.5 232.5,133.5C 233.496,133.586 234.329,133.252 235,132.5C 238.617,123.548 244.45,116.381 252.5,111C 259.672,108.015 267.006,107.681 274.5,110C 273.552,110.483 272.552,110.649 271.5,110.5 Z"/></g>
<g><path style="opacity:1" fill="#8d8930" d="M 121.5,62.5 C 122.167,62.5 122.5,62.8333 122.5,63.5C 119.769,65.0714 117.935,67.4048 117,70.5C 116.501,74.1516 116.335,77.8183 116.5,81.5C 110.158,81.3338 103.825,81.5005 97.5,82C 95.3762,83.1217 93.5429,84.6217 92,86.5C 90.7097,97.7365 90.043,109.07 90,120.5C 72.8711,119.466 65.7044,127.466 68.5,144.5C 64.8333,144.5 61.1667,144.5 57.5,144.5C 57.4641,148.979 56.6307,153.312 55,157.5C 47.7048,170.197 37.2048,174.531 23.5,170.5C 28.1785,170.666 32.8452,170.499 37.5,170C 43.8664,166.566 49.3664,162.066 54,156.5C 54.5218,152.416 55.3551,148.416 56.5,144.5C 59.1138,142.981 61.9472,141.648 65,140.5C 65.0117,135.256 65.845,130.256 67.5,125.5C 69.9838,124.277 72.3171,122.777 74.5,121C 78.1667,120.667 81.8333,120.333 85.5,120C 86.3333,119.167 87.1667,118.333 88,117.5C 88.3333,107.167 88.6667,96.8333 89,86.5C 90.1764,84.8043 91.343,83.1376 92.5,81.5C 99.2268,80.9974 105.893,80.1641 112.5,79C 113,78.5 113.5,78 114,77.5C 113.519,71.9356 115.019,67.1022 118.5,63C 119.448,62.5172 120.448,62.3505 121.5,62.5 Z"/></g>
<g><path style="opacity:1" fill="#b5cad9" d="M 227.5,127.5 C 229.281,130.527 230.948,133.527 232.5,136.5C 234.833,136.5 237.167,136.5 239.5,136.5C 236.36,137.641 233.027,137.808 229.5,137C 228.696,133.883 228.03,130.716 227.5,127.5 Z"/></g>
<g><path style="opacity:1" fill="#e48d97" d="M 259.5,146.5 C 264.985,145.348 270.651,145.182 276.5,146C 280.346,147.086 283.68,148.919 286.5,151.5C 285.833,151.5 285.167,151.5 284.5,151.5C 283.486,150.326 282.153,149.66 280.5,149.5C 278.723,148.4 276.723,147.566 274.5,147C 269.511,146.501 264.511,146.334 259.5,146.5 Z"/></g>
<g><path style="opacity:1" fill="#ea707e" d="M 259.5,146.5 C 264.511,146.334 269.511,146.501 274.5,147C 276.723,147.566 278.723,148.4 280.5,149.5C 269.851,146.726 260.184,148.559 251.5,155C 250.119,157.521 248.119,159.355 245.5,160.5C 247.068,157.094 249.235,154.094 252,151.5C 253.945,150.137 256.112,149.303 258.5,149C 259.252,148.329 259.586,147.496 259.5,146.5 Z"/></g>
<g><path style="opacity:1" fill="#cc031c" d="M 283.5,153.5 C 285.684,158.214 287.184,163.214 288,168.5C 289.789,170.229 291.956,170.896 294.5,170.5C 295.167,170.5 295.833,170.5 296.5,170.5C 296.427,172.027 297.094,173.027 298.5,173.5C 298.833,174.167 299.167,174.833 299.5,175.5C 298.833,220.002 298.167,264.669 297.5,309.5C 260.706,310.83 224.039,310.83 187.5,309.5C 188.306,308.272 189.306,307.272 190.5,306.5C 195.034,302.445 198.868,297.779 202,292.5C 202.667,286.167 202.667,279.833 202,273.5C 200.741,270.644 199.241,267.977 197.5,265.5C 193.272,258.408 186.939,255.074 178.5,255.5C 177.167,255.5 175.833,255.5 174.5,255.5C 174.5,255.167 174.5,254.833 174.5,254.5C 174.335,251.482 174.502,248.482 175,245.5C 179.483,244.358 182.816,241.692 185,237.5C 185.278,233.806 185.278,230.139 185,226.5C 189.934,225.856 194.767,225.19 199.5,224.5C 199.833,224.5 200.167,224.5 200.5,224.5C 205.372,223.984 208.205,221.317 209,216.5C 209.5,207.84 209.666,199.173 209.5,190.5C 214.363,190.819 219.03,190.486 223.5,189.5C 225.167,188.167 226.833,186.833 228.5,185.5C 231.758,182.631 233.091,178.964 232.5,174.5C 241.572,177.081 245.905,173.748 245.5,164.5C 246.249,163.469 246.915,162.302 247.5,161C 252.196,157.626 256.863,154.293 261.5,151C 267.833,150.333 274.167,150.333 280.5,151C 281.691,151.698 282.691,152.531 283.5,153.5 Z"/></g>
<g><path style="opacity:1" fill="#ce011a" d="M 264.5,152.5 C 265.735,152.721 266.735,153.388 267.5,154.5C 268.468,153.511 269.635,152.844 271,152.5C 273.153,153.734 275.32,154.734 277.5,155.5C 282.103,160.552 284.269,166.552 284,173.5C 287,174.833 290,176.167 293,177.5C 293.5,220.165 293.667,262.832 293.5,305.5C 262.498,305.667 231.498,305.5 200.5,305C 203.931,300.318 206.264,295.484 207.5,290.5C 206.235,285.562 206.235,280.562 207.5,275.5C 205.374,269.216 202.541,262.883 199,256.5C 194.633,251.796 189.466,248.296 183.5,246C 185.953,244.12 187.953,241.787 189.5,239C 186.833,238.333 186.833,237.667 189.5,237C 188.22,234.868 188.22,232.702 189.5,230.5C 193.377,229.803 197.21,229.136 201,228.5C 201.333,228.833 201.667,229.167 202,229.5C 205.487,228.084 208.654,225.584 211.5,222C 211.167,221.667 210.833,221.333 210.5,221C 212.004,219.663 213.004,217.996 213.5,216C 212.488,209.128 212.321,201.961 213,194.5C 214.016,193.366 214.683,193.699 215,195.5C 217.333,194.167 219.667,194.167 222,195.5C 229.662,193.67 234.496,189.003 236.5,181.5C 236.32,180.446 235.987,179.446 235.5,178.5C 239.145,177.713 242.812,177.546 246.5,178C 247,177.5 247.5,177 248,176.5C 247.979,170.442 249.812,165.609 253.5,162C 253.167,161.667 252.833,161.333 252.5,161C 256.671,158.414 260.671,155.581 264.5,152.5 Z"/></g>
<g><path style="opacity:1" fill="#e4e192" d="M 8.5,146.5 C 10.9042,150.751 12.4042,155.418 13,160.5C 13.66,162.324 14.8267,163.657 16.5,164.5C 16.5,164.833 16.5,165.167 16.5,165.5C 16.5,166.167 16.5,166.833 16.5,167.5C 14.2043,165.599 12.371,163.266 11,160.5C 9.97103,155.856 9.1377,151.19 8.5,146.5 Z"/></g>
<g><path style="opacity:1" fill="#d9293d" d="M 280.5,149.5 C 282.153,149.66 283.486,150.326 284.5,151.5C 284.833,152.167 285.167,152.833 285.5,153.5C 284.833,153.5 284.167,153.5 283.5,153.5C 282.691,152.531 281.691,151.698 280.5,151C 274.167,150.333 267.833,150.333 261.5,151C 256.863,154.293 252.196,157.626 247.5,161C 246.915,162.302 246.249,163.469 245.5,164.5C 245.5,163.167 245.5,161.833 245.5,160.5C 248.119,159.355 250.119,157.521 251.5,155C 260.184,148.559 269.851,146.726 280.5,149.5 Z"/></g>
<g><path style="opacity:1" fill="#9d3135" d="M 284.5,151.5 C 285.167,151.5 285.833,151.5 286.5,151.5C 291.624,155.502 294.291,160.835 294.5,167.5C 293.542,167.047 292.708,166.381 292,165.5C 291.605,161.981 290.605,158.648 289,155.5C 288.184,154.177 287.017,153.511 285.5,153.5C 285.167,152.833 284.833,152.167 284.5,151.5 Z"/></g>
<g><path style="opacity:1" fill="#b50517" d="M 283.5,153.5 C 284.167,153.5 284.833,153.5 285.5,153.5C 287.017,153.511 288.184,154.177 289,155.5C 290.605,158.648 291.605,161.981 292,165.5C 292.708,166.381 293.542,167.047 294.5,167.5C 294.5,168.5 294.5,169.5 294.5,170.5C 291.956,170.896 289.789,170.229 288,168.5C 287.184,163.214 285.684,158.214 283.5,153.5 Z"/></g>
<g><path style="opacity:1" fill="#9d9927" d="M 56.5,144.5 C 55.3551,148.416 54.5218,152.416 54,156.5C 49.3664,162.066 43.8664,166.566 37.5,170C 32.8452,170.499 28.1785,170.666 23.5,170.5C 20.5185,170.818 18.1852,169.818 16.5,167.5C 29.2678,172.296 40.1012,169.629 49,159.5C 51.5615,154.377 54.0615,149.377 56.5,144.5 Z"/></g>
<g><path style="opacity:1" fill="#f095a0" d="M 259.5,146.5 C 259.586,147.496 259.252,148.329 258.5,149C 256.112,149.303 253.945,150.137 252,151.5C 249.235,154.094 247.068,157.094 245.5,160.5C 245.5,161.833 245.5,163.167 245.5,164.5C 244.349,166.779 243.349,169.112 242.5,171.5C 238.486,171.334 234.486,171.501 230.5,172C 230.052,176.912 228.718,181.578 226.5,186C 222.074,187.652 217.741,187.818 213.5,186.5C 223.933,186.398 228.933,181.065 228.5,170.5C 232.5,170.5 236.5,170.5 240.5,170.5C 240.302,161.396 243.969,154.229 251.5,149C 253.909,147.293 256.575,146.46 259.5,146.5 Z"/></g>
<g><path style="opacity:1" fill="#e04154" d="M 245.5,164.5 C 245.905,173.748 241.572,177.081 232.5,174.5C 233.091,178.964 231.758,182.631 228.5,185.5C 230.143,181.7 230.81,177.7 230.5,173.5C 234.182,173.665 237.848,173.499 241.5,173C 242.056,172.617 242.389,172.117 242.5,171.5C 243.349,169.112 244.349,166.779 245.5,164.5 Z"/></g>
<g><path style="opacity:1" fill="#ab0013" d="M 299.5,175.5 C 300.665,220.331 300.831,265.331 300,310.5C 299.5,311 299,311.5 298.5,312C 258.835,312.5 219.168,312.667 179.5,312.5C 179.167,312.5 178.833,312.5 178.5,312.5C 178.791,311.351 179.624,310.684 181,310.5C 183.137,309.923 185.304,309.59 187.5,309.5C 224.039,310.83 260.706,310.83 297.5,309.5C 298.167,264.669 298.833,220.002 299.5,175.5 Z"/></g>
<g><path style="opacity:1" fill="#ac6a71" d="M 296.5,170.5 C 299.167,170.5 301.833,170.5 304.5,170.5C 304.832,219.003 304.499,267.336 303.5,315.5C 303.5,268.833 303.5,222.167 303.5,175.5C 302.448,173.744 300.781,173.077 298.5,173.5C 297.094,173.027 296.427,172.027 296.5,170.5 Z"/></g>
<g><path style="opacity:1" fill="#7ac45d" d="M 71.5,181.5 C 72.8333,182.167 73.8333,183.167 74.5,184.5C 70.6895,182.69 66.6895,182.19 62.5,183C 61.2584,186.448 59.5917,189.615 57.5,192.5C 57.4043,182.938 62.071,179.272 71.5,181.5 Z"/></g>
<g><path style="opacity:1" fill="#1db200" d="M 87.5,217.5 C 88.8195,218.942 90.4862,219.608 92.5,219.5C 93.1667,219.833 93.8333,220.167 94.5,220.5C 95.2899,221.794 96.2899,222.961 97.5,224C 102.155,224.499 106.821,224.666 111.5,224.5C 109.952,230.718 111.952,235.051 117.5,237.5C 118.5,238.167 119.5,238.833 120.5,239.5C 120.833,240.5 121.5,241.167 122.5,241.5C 122.856,243.19 123.856,244.19 125.5,244.5C 129.236,245.989 133.236,246.656 137.5,246.5C 136.549,252.614 139.049,256.28 145,257.5C 146.274,258.535 147.44,259.702 148.5,261C 151.882,261.176 155.215,261.676 158.5,262.5C 162.397,270.137 163.397,278.137 161.5,286.5C 159.787,289.725 157.454,292.559 154.5,295C 149.78,296.543 145.113,298.209 140.5,300C 139.782,302.461 139.115,304.961 138.5,307.5C 93.8383,308.5 49.1716,308.833 4.5,308.5C 4.33335,269.832 4.50001,231.165 5,192.5C 7.87519,198.213 12.3752,201.88 18.5,203.5C 18.33,204.822 18.6634,205.989 19.5,207C 29.0759,209.869 38.7425,210.203 48.5,208C 51.4468,205.564 53.7801,202.731 55.5,199.5C 55.3284,198.508 55.6618,197.842 56.5,197.5C 61.4499,194.597 63.4499,190.264 62.5,184.5C 64.8568,184.337 67.1902,184.503 69.5,185C 71.8622,187.187 74.5289,189.02 77.5,190.5C 79.7325,191.615 81.8992,191.615 84,190.5C 84.3333,198.5 84.6667,206.5 85,214.5C 85.8518,215.571 86.6851,216.571 87.5,217.5 Z"/></g>
<g><path style="opacity:1" fill="#b8d8a9" d="M 88.5,186.5 C 84.8333,186.5 81.1667,186.5 77.5,186.5C 76.8333,186.5 76.5,186.167 76.5,185.5C 79.3743,185.549 82.2077,185.216 85,184.5C 86.6991,184.387 87.8658,185.053 88.5,186.5 Z"/></g>
<g><path style="opacity:1" fill="#aad798" d="M -0.5,181.5 C 2.5,181.5 5.5,181.5 8.5,181.5C 8.5,182.5 8.5,183.5 8.5,184.5C 7.5,184.5 6.5,184.5 5.5,184.5C 4.11552,183.199 2.61552,183.199 1,184.5C 0.168624,227.335 0.33529,270.002 1.5,312.5C 1.5,313.5 1.5,314.5 1.5,315.5C 0.833333,315.5 0.166667,315.5 -0.5,315.5C -0.5,270.833 -0.5,226.167 -0.5,181.5 Z"/></g>
<g><path style="opacity:1" fill="#8abf73" d="M 77.5,186.5 C 81.1667,186.5 84.8333,186.5 88.5,186.5C 89.6005,187.605 90.2671,188.938 90.5,190.5C 89.8333,190.167 89.1667,189.833 88.5,189.5C 87.8333,189.5 87.1667,189.5 86.5,189.5C 83.9205,188.772 81.2538,188.272 78.5,188C 77.944,187.617 77.6107,187.117 77.5,186.5 Z"/></g>
<g><path style="opacity:1" fill="#99d480" d="M 5.5,184.5 C 4.17793,184.33 3.01127,184.663 2,185.5C 1.50001,227.832 1.33334,270.165 1.5,312.5C 0.33529,270.002 0.168624,227.335 1,184.5C 2.61552,183.199 4.11552,183.199 5.5,184.5 Z"/></g>
<g><path style="opacity:1" fill="#afda9b" d="M 71.5,181.5 C 62.071,179.272 57.4043,182.938 57.5,192.5C 54.8173,199.342 49.8173,203.509 42.5,205C 37.6478,205.815 32.9811,205.648 28.5,204.5C 46.351,204.983 56.0176,196.316 57.5,178.5C 61.8461,178.334 66.1794,178.501 70.5,179C 71.2524,179.671 71.5858,180.504 71.5,181.5 Z"/></g>
<g><path style="opacity:1" fill="#7bc95d" d="M 5.5,184.5 C 5.5,184.833 5.5,185.167 5.5,185.5C 4.5041,185.414 3.67076,185.748 3,186.5C 2.50001,228.499 2.33334,270.499 2.5,312.5C 2.16667,312.5 1.83333,312.5 1.5,312.5C 1.33334,270.165 1.50001,227.832 2,185.5C 3.01127,184.663 4.17793,184.33 5.5,184.5 Z"/></g>
<g><path style="opacity:1" fill="#3caf1a" d="M 74.5,184.5 C 75.1667,184.833 75.8333,185.167 76.5,185.5C 76.5,186.167 76.8333,186.5 77.5,186.5C 77.6107,187.117 77.944,187.617 78.5,188C 81.2538,188.272 83.9205,188.772 86.5,189.5C 86.2483,198.873 86.5817,208.207 87.5,217.5C 86.6851,216.571 85.8518,215.571 85,214.5C 84.6667,206.5 84.3333,198.5 84,190.5C 81.8992,191.615 79.7325,191.615 77.5,190.5C 74.5289,189.02 71.8622,187.187 69.5,185C 67.1902,184.503 64.8568,184.337 62.5,184.5C 63.4499,190.264 61.4499,194.597 56.5,197.5C 57.038,195.883 57.3713,194.216 57.5,192.5C 59.5917,189.615 61.2584,186.448 62.5,183C 66.6895,182.19 70.6895,182.69 74.5,184.5 Z"/></g>
<g><path style="opacity:1" fill="#ed818d" d="M 242.5,171.5 C 242.389,172.117 242.056,172.617 241.5,173C 237.848,173.499 234.182,173.665 230.5,173.5C 230.81,177.7 230.143,181.7 228.5,185.5C 226.833,186.833 225.167,188.167 223.5,189.5C 218.138,189.528 212.805,189.194 207.5,188.5C 207.666,197.173 207.5,205.84 207,214.5C 206.265,218.674 204.098,221.674 200.5,223.5C 194.824,223.334 189.157,223.501 183.5,224C 182.858,228.601 182.191,233.101 181.5,237.5C 181.197,232.57 181.531,227.737 182.5,223C 187.833,222.667 193.167,222.333 198.5,222C 199.756,221.583 200.423,220.75 200.5,219.5C 202.911,219.863 204.411,218.863 205,216.5C 204.853,205.785 205.686,195.451 207.5,185.5C 209.435,186.15 211.435,186.483 213.5,186.5C 217.741,187.818 222.074,187.652 226.5,186C 228.718,181.578 230.052,176.912 230.5,172C 234.486,171.501 238.486,171.334 242.5,171.5 Z"/></g>
<g><path style="opacity:1" fill="#de394c" d="M 223.5,189.5 C 219.03,190.486 214.363,190.819 209.5,190.5C 209.666,199.173 209.5,207.84 209,216.5C 208.205,221.317 205.372,223.984 200.5,224.5C 200.5,224.167 200.5,223.833 200.5,223.5C 204.098,221.674 206.265,218.674 207,214.5C 207.5,205.84 207.666,197.173 207.5,188.5C 212.805,189.194 218.138,189.528 223.5,189.5 Z"/></g>
<g><path style="opacity:1" fill="#368e1e" d="M 5.5,185.5 C 5.5,185.167 5.5,184.833 5.5,184.5C 6.5,184.5 7.5,184.5 8.5,184.5C 9.74116,189.242 11.7412,193.575 14.5,197.5C 9.14192,195.157 6.14192,191.157 5.5,185.5 Z"/></g>
<g><path style="opacity:1" fill="#188803" d="M 86.5,189.5 C 87.1667,189.5 87.8333,189.5 88.5,189.5C 88.3336,197.84 88.5003,206.173 89,214.5C 89.7083,215.381 90.5416,216.047 91.5,216.5C 92.1098,217.391 92.4431,218.391 92.5,219.5C 90.4862,219.608 88.8195,218.942 87.5,217.5C 86.5817,208.207 86.2483,198.873 86.5,189.5 Z"/></g>
<g><path style="opacity:1" fill="#43b61d" d="M 5.5,185.5 C 6.14192,191.157 9.14192,195.157 14.5,197.5C 15.5,198.167 16.5,198.833 17.5,199.5C 17.8588,201.371 18.8588,202.871 20.5,204C 33.2794,209.829 44.946,208.329 55.5,199.5C 53.7801,202.731 51.4468,205.564 48.5,208C 38.7425,210.203 29.0759,209.869 19.5,207C 18.6634,205.989 18.33,204.822 18.5,203.5C 12.3752,201.88 7.87519,198.213 5,192.5C 4.50001,231.165 4.33335,269.832 4.5,308.5C 4.16667,309.167 3.83333,309.833 3.5,310.5C 3.5,311.167 3.5,311.833 3.5,312.5C 3.16667,312.5 2.83333,312.5 2.5,312.5C 2.33334,270.499 2.50001,228.499 3,186.5C 3.67076,185.748 4.5041,185.414 5.5,185.5 Z"/></g>
<g><path style="opacity:1" fill="#357a26" d="M 88.5,189.5 C 89.1667,189.833 89.8333,190.167 90.5,190.5C 91.4699,199.082 91.8032,207.749 91.5,216.5C 90.5416,216.047 89.7083,215.381 89,214.5C 88.5003,206.173 88.3336,197.84 88.5,189.5 Z"/></g>
<g><path style="opacity:1" fill="#91cf77" d="M 57.5,192.5 C 57.3713,194.216 57.038,195.883 56.5,197.5C 55.6618,197.842 55.3284,198.508 55.5,199.5C 44.946,208.329 33.2794,209.829 20.5,204C 18.8588,202.871 17.8588,201.371 17.5,199.5C 20.7743,201.97 24.441,203.636 28.5,204.5C 32.9811,205.648 37.6478,205.815 42.5,205C 49.8173,203.509 54.8173,199.342 57.5,192.5 Z"/></g>
<g><path style="opacity:1" fill="#f3aab2" d="M 207.5,185.5 C 205.686,195.451 204.853,205.785 205,216.5C 204.411,218.863 202.911,219.863 200.5,219.5C 202.27,217.887 203.436,215.887 204,213.5C 204.5,203.839 204.666,194.172 204.5,184.5C 205.791,184.263 206.791,184.596 207.5,185.5 Z"/></g>
<g><path style="opacity:1" fill="#9cd185" d="M 94.5,220.5 C 95.609,220.557 96.609,220.89 97.5,221.5C 102.749,221.859 107.749,222.859 112.5,224.5C 112.167,224.5 111.833,224.5 111.5,224.5C 106.821,224.666 102.155,224.499 97.5,224C 96.2899,222.961 95.2899,221.794 94.5,220.5 Z"/></g>
<g><path style="opacity:1" fill="#a8c69a" d="M 97.5,221.5 C 104.175,221.334 110.842,221.5 117.5,222C 118.916,223.915 118.582,225.415 116.5,226.5C 115.817,224.824 114.483,224.157 112.5,224.5C 107.749,222.859 102.749,221.859 97.5,221.5 Z"/></g>
<g><path style="opacity:1" fill="#e86474" d="M 200.5,223.5 C 200.5,223.833 200.5,224.167 200.5,224.5C 200.167,224.5 199.833,224.5 199.5,224.5C 194.489,224.334 189.489,224.501 184.5,225C 183.697,229.414 183.197,233.914 183,238.5C 182.292,239.381 181.458,240.047 180.5,240.5C 180.557,239.391 180.89,238.391 181.5,237.5C 182.191,233.101 182.858,228.601 183.5,224C 189.157,223.501 194.824,223.334 200.5,223.5 Z"/></g>
<g><path style="opacity:1" fill="#2a8616" d="M 111.5,224.5 C 111.833,224.5 112.167,224.5 112.5,224.5C 114.483,224.157 115.817,224.824 116.5,226.5C 115.182,230.274 115.515,233.941 117.5,237.5C 111.952,235.051 109.952,230.718 111.5,224.5 Z"/></g>
<g><path style="opacity:1" fill="#b5d4a7" d="M 120.5,239.5 C 128.453,240.271 136.453,240.771 144.5,241C 145.38,242.356 145.714,243.856 145.5,245.5C 144.533,244.194 143.199,243.527 141.5,243.5C 141.389,242.883 141.056,242.383 140.5,242C 134.509,241.501 128.509,241.334 122.5,241.5C 121.5,241.167 120.833,240.5 120.5,239.5 Z"/></g>
<g><path style="opacity:1" fill="#ec96a0" d="M 200.5,219.5 C 200.423,220.75 199.756,221.583 198.5,222C 193.167,222.333 187.833,222.667 182.5,223C 181.531,227.737 181.197,232.57 181.5,237.5C 180.89,238.391 180.557,239.391 180.5,240.5C 173.115,240.73 170.615,244.397 173,251.5C 173.232,252.737 173.732,253.737 174.5,254.5C 174.5,254.833 174.5,255.167 174.5,255.5C 173.167,255.5 171.833,255.5 170.5,255.5C 170.5,250.5 170.5,245.5 170.5,240.5C 174.514,240.44 177.681,238.773 180,235.5C 180.141,230.899 180.307,226.399 180.5,222C 187.398,222.043 194.065,221.21 200.5,219.5 Z"/></g>
<g><path style="opacity:1" fill="#8ecd74" d="M 122.5,241.5 C 128.509,241.334 134.509,241.501 140.5,242C 141.056,242.383 141.389,242.883 141.5,243.5C 141.5,244.167 141.167,244.5 140.5,244.5C 135.5,244.5 130.5,244.5 125.5,244.5C 123.856,244.19 122.856,243.19 122.5,241.5 Z"/></g>
<g><path style="opacity:1" fill="#de4757" d="M 199.5,224.5 C 194.767,225.19 189.934,225.856 185,226.5C 185.278,230.139 185.278,233.806 185,237.5C 182.816,241.692 179.483,244.358 175,245.5C 174.502,248.482 174.335,251.482 174.5,254.5C 173.732,253.737 173.232,252.737 173,251.5C 170.615,244.397 173.115,240.73 180.5,240.5C 181.458,240.047 182.292,239.381 183,238.5C 183.197,233.914 183.697,229.414 184.5,225C 189.489,224.501 194.489,224.334 199.5,224.5 Z"/></g>
<g><path style="opacity:1" fill="#238911" d="M 141.5,243.5 C 143.199,243.527 144.533,244.194 145.5,245.5C 145.5,248.5 145.5,251.5 145.5,254.5C 143.61,254.703 142.11,254.037 141,252.5C 140.503,249.854 140.336,247.187 140.5,244.5C 141.167,244.5 141.5,244.167 141.5,243.5 Z"/></g>
<g><path style="opacity:1" fill="#8cbe76" d="M 148.5,255.5 C 156.547,256.518 162.547,260.518 166.5,267.5C 165.833,267.167 165.167,266.833 164.5,266.5C 162.854,264.188 160.854,262.188 158.5,260.5C 154.777,259.177 151.444,257.51 148.5,255.5 Z"/></g>
<g><path style="opacity:1" fill="#b4232e" d="M 178.5,255.5 C 186.939,255.074 193.272,258.408 197.5,265.5C 196.833,265.5 196.167,265.5 195.5,265.5C 193.996,263.164 191.996,261.331 189.5,260C 185.693,258.572 182.026,257.072 178.5,255.5 Z"/></g>
<g><path style="opacity:1" fill="#ef97a1" d="M 198.5,271.5 C 199.222,271.918 199.722,272.584 200,273.5C 204.079,292.891 196.579,304.391 177.5,308C 176.565,310.381 176.232,312.881 176.5,315.5C 174.598,312.663 173.931,309.329 174.5,305.5C 188.046,304.788 196.213,297.788 199,284.5C 199.534,280.141 199.368,275.808 198.5,271.5 Z"/></g>
<g><path style="opacity:1" fill="#e56270" d="M 195.5,265.5 C 196.167,265.5 196.833,265.5 197.5,265.5C 199.241,267.977 200.741,270.644 202,273.5C 202.667,279.833 202.667,286.167 202,292.5C 198.868,297.779 195.034,302.445 190.5,306.5C 186.447,307.013 182.447,307.846 178.5,309C 177.577,311.041 177.244,313.208 177.5,315.5C 177.167,315.5 176.833,315.5 176.5,315.5C 176.232,312.881 176.565,310.381 177.5,308C 196.579,304.391 204.079,292.891 200,273.5C 199.722,272.584 199.222,271.918 198.5,271.5C 198.025,269.216 197.025,267.216 195.5,265.5 Z"/></g>
<g><path style="opacity:1" fill="#1e6b12" d="M 167.5,269.5 C 169.369,272.798 170.369,276.465 170.5,280.5C 169.788,294.201 162.788,302.201 149.5,304.5C 152.824,301.878 156.49,299.711 160.5,298C 167.001,289.637 169.334,280.137 167.5,269.5 Z"/></g>
<g><path style="opacity:1" fill="#19a800" d="M 161.5,286.5 C 159.62,294.862 154.287,299.029 145.5,299C 143.714,299.785 142.214,300.951 141,302.5C 140.955,305.334 140.121,307.834 138.5,310C 93.5012,310.5 48.5012,310.667 3.5,310.5C 3.83333,309.833 4.16667,309.167 4.5,308.5C 49.1716,308.833 93.8383,308.5 138.5,307.5C 139.115,304.961 139.782,302.461 140.5,300C 145.113,298.209 149.78,296.543 154.5,295C 157.454,292.559 159.787,289.725 161.5,286.5 Z"/></g>
<g><path style="opacity:1" fill="#d03648" d="M 190.5,306.5 C 189.306,307.272 188.306,308.272 187.5,309.5C 185.304,309.59 183.137,309.923 181,310.5C 179.624,310.684 178.791,311.351 178.5,312.5C 178.5,313.5 178.5,314.5 178.5,315.5C 178.167,315.5 177.833,315.5 177.5,315.5C 177.244,313.208 177.577,311.041 178.5,309C 182.447,307.846 186.447,307.013 190.5,306.5 Z"/></g>
<g><path style="opacity:1" fill="#199a02" d="M 125.5,244.5 C 130.5,244.5 135.5,244.5 140.5,244.5C 140.336,247.187 140.503,249.854 141,252.5C 142.11,254.037 143.61,254.703 145.5,254.5C 146.209,255.404 147.209,255.737 148.5,255.5C 151.444,257.51 154.777,259.177 158.5,260.5C 160.854,262.188 162.854,264.188 164.5,266.5C 167.688,276.635 166.522,286.302 161,295.5C 159.59,296.787 158.09,297.954 156.5,299C 151.32,299.356 146.82,301.189 143,304.5C 142.955,307.334 142.121,309.834 140.5,312C 94.8345,312.5 49.1679,312.667 3.5,312.5C 3.5,311.833 3.5,311.167 3.5,310.5C 48.5012,310.667 93.5012,310.5 138.5,310C 140.121,307.834 140.955,305.334 141,302.5C 142.214,300.951 143.714,299.785 145.5,299C 154.287,299.029 159.62,294.862 161.5,286.5C 163.397,278.137 162.397,270.137 158.5,262.5C 155.215,261.676 151.882,261.176 148.5,261C 147.44,259.702 146.274,258.535 145,257.5C 139.049,256.28 136.549,252.614 137.5,246.5C 133.236,246.656 129.236,245.989 125.5,244.5 Z"/></g>
<g><path style="opacity:1" fill="#0f7801" d="M 164.5,266.5 C 165.167,266.833 165.833,267.167 166.5,267.5C 167.338,267.842 167.672,268.508 167.5,269.5C 169.334,280.137 167.001,289.637 160.5,298C 156.49,299.711 152.824,301.878 149.5,304.5C 148.209,304.263 147.209,304.596 146.5,305.5C 145.686,307.631 145.186,309.964 145,312.5C 143.933,313.191 142.766,313.691 141.5,314C 118.5,314.167 95.5,314.333 72.5,314.5C 49.1568,314.5 26.1568,313.833 3.5,312.5C 49.1679,312.667 94.8345,312.5 140.5,312C 142.121,309.834 142.955,307.334 143,304.5C 146.82,301.189 151.32,299.356 156.5,299C 158.09,297.954 159.59,296.787 161,295.5C 166.522,286.302 167.688,276.635 164.5,266.5 Z"/></g>
<g><path style="opacity:1" fill="#8b010d" d="M 298.5,173.5 C 300.781,173.077 302.448,173.744 303.5,175.5C 302.99,221.082 302.156,266.748 301,312.5C 300.5,313 300,313.5 299.5,314C 279.5,314.167 259.5,314.333 239.5,314.5C 219.155,314.5 199.155,313.833 179.5,312.5C 219.168,312.667 258.835,312.5 298.5,312C 299,311.5 299.5,311 300,310.5C 300.831,265.331 300.665,220.331 299.5,175.5C 299.167,174.833 298.833,174.167 298.5,173.5 Z"/></g>
<g><path style="opacity:1" fill="#166b05" d="M 146.5,305.5 C 146.5,308.833 146.5,312.167 146.5,315.5C 98.1667,315.5 49.8333,315.5 1.5,315.5C 1.5,314.5 1.5,313.5 1.5,312.5C 1.83333,312.5 2.16667,312.5 2.5,312.5C 2.83333,312.5 3.16667,312.5 3.5,312.5C 26.1568,313.833 49.1568,314.5 72.5,314.5C 95.5,314.333 118.5,314.167 141.5,314C 142.766,313.691 143.933,313.191 145,312.5C 145.186,309.964 145.686,307.631 146.5,305.5 Z"/></g>
<g><path style="opacity:1" fill="#7a020d" d="M 303.5,175.5 C 303.5,222.167 303.5,268.833 303.5,315.5C 261.833,315.5 220.167,315.5 178.5,315.5C 178.5,314.5 178.5,313.5 178.5,312.5C 178.833,312.5 179.167,312.5 179.5,312.5C 199.155,313.833 219.155,314.5 239.5,314.5C 259.5,314.333 279.5,314.167 299.5,314C 300,313.5 300.5,313 301,312.5C 302.156,266.748 302.99,221.082 303.5,175.5 Z"/></g>
<g><path style="opacity:1" fill="#509f4e" d="M 149.5,328.5 C 143.409,328.211 137.409,328.545 131.5,329.5C 134.087,328.184 137.087,327.517 140.5,327.5C 143.686,327.502 146.686,327.835 149.5,328.5 Z"/></g>
<g><path style="opacity:1" fill="#0a7e07" d="M 203.5,333.5 C 204.038,335.117 204.371,336.784 204.5,338.5C 200.515,339.488 196.515,340.488 192.5,341.5C 191.609,340.89 190.609,340.557 189.5,340.5C 186.373,339.185 183.373,339.518 180.5,341.5C 179.883,341.611 179.383,341.944 179,342.5C 178.333,346.833 178.333,351.167 179,355.5C 179.671,356.252 180.504,356.586 181.5,356.5C 185.362,360.219 189.362,360.386 193.5,357C 190.639,357.03 188.305,356.197 186.5,354.5C 187.473,352.052 187.806,349.385 187.5,346.5C 194.5,346.5 201.5,346.5 208.5,346.5C 208.44,357.113 203.773,365.279 194.5,371C 189.511,371.499 184.511,371.666 179.5,371.5C 177.407,370.955 175.407,370.122 173.5,369C 161.577,356.301 161.577,343.635 173.5,331C 184.234,324.416 194.234,325.249 203.5,333.5 Z"/></g>
<g><path style="opacity:1" fill="#339732" d="M 27.5,327.5 C 27.5,327.833 27.5,328.167 27.5,328.5C 18.8333,328.5 10.1667,328.5 1.5,328.5C 1.5,342.5 1.5,356.5 1.5,370.5C 1.16667,370.5 0.833333,370.5 0.5,370.5C 0.5,356.167 0.5,341.833 0.5,327.5C 9.5,327.5 18.5,327.5 27.5,327.5 Z"/></g>
<g><path style="opacity:1" fill="#047e03" d="M 27.5,328.5 C 27.5,331.833 27.5,335.167 27.5,338.5C 23.1667,338.5 18.8333,338.5 14.5,338.5C 14.2155,340.415 14.5489,342.081 15.5,343.5C 15.5,344.167 15.8333,344.5 16.5,344.5C 20.3714,344.185 24.0381,344.518 27.5,345.5C 25.6122,347.988 24.9455,350.988 25.5,354.5C 21.5633,354.207 17.73,354.54 14,355.5C 13.5007,360.489 13.3341,365.489 13.5,370.5C 9.5,370.5 5.5,370.5 1.5,370.5C 1.5,356.5 1.5,342.5 1.5,328.5C 10.1667,328.5 18.8333,328.5 27.5,328.5 Z"/></g>
<g><path style="opacity:1" fill="#429e41" d="M 47.5,327.5 C 47.5,328.167 47.1667,328.5 46.5,328.5C 42.5,328.5 38.5,328.5 34.5,328.5C 34.5,338.833 34.5,349.167 34.5,359.5C 33.5056,349.013 33.1722,338.346 33.5,327.5C 38.1667,327.5 42.8333,327.5 47.5,327.5 Z"/></g>
<g><path style="opacity:1" fill="#037f02" d="M 70.5,327.5 C 70.5,327.833 70.5,328.167 70.5,328.5C 69.7428,339.35 69.0761,350.35 68.5,361.5C 67.9524,363.394 66.9524,365.06 65.5,366.5C 63.3211,367.757 61.3211,369.257 59.5,371C 54.5111,371.499 49.5111,371.666 44.5,371.5C 38.6433,369.64 35.3099,365.64 34.5,359.5C 34.5,349.167 34.5,338.833 34.5,328.5C 38.5,328.5 42.5,328.5 46.5,328.5C 46.3335,338.172 46.5002,347.839 47,357.5C 48.0113,358.337 49.1779,358.67 50.5,358.5C 54.0414,360.409 56.2081,359.409 57,355.5C 57.4998,346.173 57.6665,336.839 57.5,327.5C 61.8333,327.5 66.1667,327.5 70.5,327.5 Z"/></g>
<g><path style="opacity:1" fill="#075706" d="M 47.5,327.5 C 48.33,336.991 48.83,346.658 49,356.5C 49.7172,357.044 50.2172,357.711 50.5,358.5C 49.1779,358.67 48.0113,358.337 47,357.5C 46.5002,347.839 46.3335,338.172 46.5,328.5C 47.1667,328.5 47.5,328.167 47.5,327.5 Z"/></g>
<g><path style="opacity:1" fill="#006a00" d="M 70.5,328.5 C 71.6576,337.657 71.8243,346.991 71,356.5C 70.2432,358.315 69.4098,359.981 68.5,361.5C 69.0761,350.35 69.7428,339.35 70.5,328.5 Z"/></g>
<g><path style="opacity:1" fill="#319530" d="M 103.5,328.5 C 96.1667,328.5 88.8333,328.5 81.5,328.5C 81.5,342.5 81.5,356.5 81.5,370.5C 81.1667,370.5 80.8333,370.5 80.5,370.5C 80.5,356.167 80.5,341.833 80.5,327.5C 88.3516,327.175 96.0182,327.508 103.5,328.5 Z"/></g>
<g><path style="opacity:1" fill="#027e01" d="M 103.5,328.5 C 106.916,328.528 109.916,329.528 112.5,331.5C 120.289,350.604 113.955,359.271 93.5,357.5C 93.5,361.833 93.5,366.167 93.5,370.5C 89.5,370.5 85.5,370.5 81.5,370.5C 81.5,356.5 81.5,342.5 81.5,328.5C 88.8333,328.5 96.1667,328.5 103.5,328.5 Z"/></g>
<g><path style="opacity:1" fill="#097e06" d="M 149.5,328.5 C 149.5,328.833 149.5,329.167 149.5,329.5C 149.975,334.717 151.142,339.717 153,344.5C 153.902,346.431 155.069,348.097 156.5,349.5C 156.5,349.833 156.5,350.167 156.5,350.5C 156.345,353.716 157.345,356.383 159.5,358.5C 159.5,358.833 159.5,359.167 159.5,359.5C 159.782,362.91 160.449,366.243 161.5,369.5C 156.88,370.493 152.214,370.827 147.5,370.5C 147.201,368.545 146.201,367.211 144.5,366.5C 141.024,365.357 137.358,365.19 133.5,366C 132.62,367.356 132.286,368.856 132.5,370.5C 127.5,370.5 122.5,370.5 117.5,370.5C 122.168,356.828 126.835,343.162 131.5,329.5C 137.409,328.545 143.409,328.211 149.5,328.5 Z"/></g>
<g><path style="opacity:1" fill="#057f03" d="M 228.5,327.5 C 228.334,336.839 228.5,346.173 229,355.5C 229.383,356.056 229.883,356.389 230.5,356.5C 232.516,359.958 235.016,360.291 238,357.5C 239.423,347.58 239.923,337.58 239.5,327.5C 243.833,327.5 248.167,327.5 252.5,327.5C 252.5,327.833 252.5,328.167 252.5,328.5C 252.861,340.214 252.361,351.881 251,363.5C 248.205,365.293 245.705,367.46 243.5,370C 237.912,371.289 232.245,371.789 226.5,371.5C 220.745,369.572 217.245,365.572 216,359.5C 215.5,348.839 215.333,338.172 215.5,327.5C 219.833,327.5 224.167,327.5 228.5,327.5 Z"/></g>
<g><path style="opacity:1" fill="#174915" d="M 228.5,327.5 C 230.473,336.775 231.14,346.442 230.5,356.5C 229.883,356.389 229.383,356.056 229,355.5C 228.5,346.173 228.334,336.839 228.5,327.5 Z"/></g>
<g><path style="opacity:1" fill="#2f4f2f" d="M 252.5,328.5 C 252.5,328.167 252.5,327.833 252.5,327.5C 253.828,332.288 254.495,337.454 254.5,343C 254.499,348.344 254.166,353.511 253.5,358.5C 253.827,348.319 253.494,338.319 252.5,328.5 Z"/></g>
<g><path style="opacity:1" fill="#0b7f07" d="M 287.5,327.5 C 291.024,336.946 293.857,346.612 296,356.5C 297.594,358.526 299.094,360.526 300.5,362.5C 300.5,362.833 300.5,363.167 300.5,363.5C 300.5,365.833 300.5,368.167 300.5,370.5C 296.167,370.5 291.833,370.5 287.5,370.5C 286.566,369.432 286.232,368.099 286.5,366.5C 285.5,366.5 284.5,366.5 283.5,366.5C 279.702,365.517 275.702,365.183 271.5,365.5C 271.5,367.167 271.5,368.833 271.5,370.5C 266.833,370.5 262.167,370.5 257.5,370.5C 261.856,356.417 266.522,342.417 271.5,328.5C 276.792,327.505 282.125,327.172 287.5,327.5 Z"/></g>
<g><path style="opacity:1" fill="#285f22" d="M 287.5,327.5 C 288.79,328.058 289.623,329.058 290,330.5C 293.607,341.153 297.107,351.82 300.5,362.5C 299.094,360.526 297.594,358.526 296,356.5C 293.857,346.612 291.024,336.946 287.5,327.5 Z"/></g>
<g><path style="opacity:1" fill="#2b5e26" d="M 149.5,329.5 C 152.204,335.941 154.537,342.608 156.5,349.5C 155.069,348.097 153.902,346.431 153,344.5C 151.142,339.717 149.975,334.717 149.5,329.5 Z"/></g>
<g><path style="opacity:1" fill="#084008" d="M 27.5,327.5 C 28.4834,331.298 28.8168,335.298 28.5,339.5C 24.1667,339.5 19.8333,339.5 15.5,339.5C 15.5,340.833 15.5,342.167 15.5,343.5C 14.5489,342.081 14.2155,340.415 14.5,338.5C 18.8333,338.5 23.1667,338.5 27.5,338.5C 27.5,335.167 27.5,331.833 27.5,328.5C 27.5,328.167 27.5,327.833 27.5,327.5 Z"/></g>
<g><path style="opacity:1" fill="#a3b0a3" d="M 28.5,339.5 C 24.7016,340.483 20.7016,340.817 16.5,340.5C 16.5,341.833 16.5,343.167 16.5,344.5C 15.8333,344.5 15.5,344.167 15.5,343.5C 15.5,342.167 15.5,340.833 15.5,339.5C 19.8333,339.5 24.1667,339.5 28.5,339.5 Z"/></g>
<g><path style="opacity:1" fill="#035503" d="M 99.5,339.5 C 98.1667,339.5 96.8333,339.5 95.5,339.5C 95.5,341.833 95.5,344.167 95.5,346.5C 93.631,344.365 92.9644,341.698 93.5,338.5C 95.7354,338.205 97.7354,338.539 99.5,339.5 Z"/></g>
<g><path style="opacity:1" fill="#f2f7f1" d="M 99.5,340.5 C 100.496,340.414 101.329,340.748 102,341.5C 103.16,346.152 101.327,348.152 96.5,347.5C 96.5,345.167 96.5,342.833 96.5,340.5C 97.5,340.5 98.5,340.5 99.5,340.5 Z"/></g>
<g><path style="opacity:1" fill="#164414" d="M 203.5,333.5 C 204.933,334.833 206.267,336.333 207.5,338C 203.207,339.931 198.874,341.764 194.5,343.5C 193.478,343.145 192.811,342.478 192.5,341.5C 196.515,340.488 200.515,339.488 204.5,338.5C 204.371,336.784 204.038,335.117 203.5,333.5 Z"/></g>
<g><path style="opacity:1" fill="#20481e" d="M 189.5,340.5 C 182.078,340.944 179.078,344.944 180.5,352.5C 179.285,348.967 179.285,345.301 180.5,341.5C 183.373,339.518 186.373,339.185 189.5,340.5 Z"/></g>
<g><path style="opacity:1" fill="#7e967e" d="M 99.5,339.5 C 99.5,339.833 99.5,340.167 99.5,340.5C 98.5,340.5 97.5,340.5 96.5,340.5C 96.5,342.833 96.5,345.167 96.5,347.5C 95.8333,347.5 95.5,347.167 95.5,346.5C 95.5,344.167 95.5,341.833 95.5,339.5C 96.8333,339.5 98.1667,339.5 99.5,339.5 Z"/></g>
<g><path style="opacity:1" fill="#51a451" d="M 208.5,345.5 C 208.5,345.833 208.5,346.167 208.5,346.5C 201.5,346.5 194.5,346.5 187.5,346.5C 187.806,349.385 187.473,352.052 186.5,354.5C 186.5,351.5 186.5,348.5 186.5,345.5C 193.833,345.5 201.167,345.5 208.5,345.5 Z"/></g>
<g><path style="opacity:1" fill="#085806" d="M 180.5,341.5 C 179.285,345.301 179.285,348.967 180.5,352.5C 180.833,353.833 181.167,355.167 181.5,356.5C 180.504,356.586 179.671,356.252 179,355.5C 178.333,351.167 178.333,346.833 179,342.5C 179.383,341.944 179.883,341.611 180.5,341.5 Z"/></g>
<g><path style="opacity:1" fill="#e3ebe2" d="M 277.5,354.5 C 278.167,350.833 278.833,347.167 279.5,343.5C 280.829,346.079 281.829,350.079 282.5,355.5C 280.585,355.784 278.919,355.451 277.5,354.5 Z"/></g>
<g><path style="opacity:1" fill="#e8efe8" d="M 137.5,354.5 C 138.475,351.933 139.142,349.267 139.5,346.5C 139.393,344.621 139.893,344.288 141,345.5C 141.711,348.734 142.545,351.901 143.5,355C 141.288,355.789 139.288,355.622 137.5,354.5 Z"/></g>
<g><path style="opacity:1" fill="#104a0f" d="M 279.5,343.5 C 278.833,347.167 278.167,350.833 277.5,354.5C 276.503,354.53 275.836,354.03 275.5,353C 276.161,350.536 276.661,348.036 277,345.5C 277.417,344.244 278.25,343.577 279.5,343.5 Z"/></g>
<g><path style="opacity:1" fill="#234c20" d="M 139.5,346.5 C 139.142,349.267 138.475,351.933 137.5,354.5C 136.371,352.372 136.204,350.039 137,347.5C 137.671,346.748 138.504,346.414 139.5,346.5 Z"/></g>
<g><path style="opacity:1" fill="#376033" d="M 156.5,350.5 C 157.871,352.936 158.871,355.603 159.5,358.5C 157.345,356.383 156.345,353.716 156.5,350.5 Z"/></g>
<g><path style="opacity:1" fill="#11490f" d="M 27.5,345.5 C 27.5,349.167 27.5,352.833 27.5,356.5C 23.8333,356.5 20.1667,356.5 16.5,356.5C 15.5128,361.305 15.1795,366.305 15.5,371.5C 10.5,371.5 5.5,371.5 0.5,371.5C 0.5,371.167 0.5,370.833 0.5,370.5C 0.833333,370.5 1.16667,370.5 1.5,370.5C 5.5,370.5 9.5,370.5 13.5,370.5C 13.3341,365.489 13.5007,360.489 14,355.5C 17.73,354.54 21.5633,354.207 25.5,354.5C 24.9455,350.988 25.6122,347.988 27.5,345.5 Z"/></g>
<g><path style="opacity:1" fill="#8f9f8e" d="M 16.5,356.5 C 16.5,361.833 16.5,367.167 16.5,372.5C 10.9738,372.821 5.64045,372.488 0.5,371.5C 5.5,371.5 10.5,371.5 15.5,371.5C 15.1795,366.305 15.5128,361.305 16.5,356.5 Z"/></g>
<g><path style="opacity:1" fill="#879787" d="M 105.5,358.5 C 102.713,359.477 99.7131,359.81 96.5,359.5C 96.5,363.833 96.5,368.167 96.5,372.5C 90.9738,372.821 85.6405,372.488 80.5,371.5C 85.5,371.5 90.5,371.5 95.5,371.5C 95.5,367.167 95.5,362.833 95.5,358.5C 98.8333,358.5 102.167,358.5 105.5,358.5 Z"/></g>
<g><path style="opacity:1" fill="#1b4918" d="M 70.5,328.5 C 70.5,328.167 70.5,327.833 70.5,327.5C 71.8279,332.288 72.4946,337.454 72.5,343C 72.5794,349.563 72.0794,356.063 71,362.5C 68.3923,368.618 63.8923,372.285 57.5,373.5C 54.1667,373.5 50.8333,373.5 47.5,373.5C 46.5,372.833 45.5,372.167 44.5,371.5C 49.5111,371.666 54.5111,371.499 59.5,371C 61.3211,369.257 63.3211,367.757 65.5,366.5C 66.9524,365.06 67.9524,363.394 68.5,361.5C 69.4098,359.981 70.2432,358.315 71,356.5C 71.8243,346.991 71.6576,337.657 70.5,328.5 Z"/></g>
<g><path style="opacity:1" fill="#2c5628" d="M 144.5,366.5 C 141.167,366.5 137.833,366.5 134.5,366.5C 134.167,368.5 133.833,370.5 133.5,372.5C 127.729,373.113 122.396,372.446 117.5,370.5C 122.5,370.5 127.5,370.5 132.5,370.5C 132.286,368.856 132.62,367.356 133.5,366C 137.358,365.19 141.024,365.357 144.5,366.5 Z"/></g>
<g><path style="opacity:1" fill="#1b4c17" d="M 252.5,328.5 C 253.494,338.319 253.827,348.319 253.5,358.5C 253.319,362.695 251.653,366.195 248.5,369C 245.107,370.62 241.774,372.12 238.5,373.5C 235.5,373.5 232.5,373.5 229.5,373.5C 228.5,372.833 227.5,372.167 226.5,371.5C 232.245,371.789 237.912,371.289 243.5,370C 245.705,367.46 248.205,365.293 251,363.5C 252.361,351.881 252.861,340.214 252.5,328.5 Z"/></g>
<g><path style="opacity:1" fill="#214d1e" d="M 208.5,345.5 C 211.563,359.205 206.23,368.538 192.5,373.5C 188.833,373.5 185.167,373.5 181.5,373.5C 180.833,372.833 180.167,372.167 179.5,371.5C 184.511,371.666 189.511,371.499 194.5,371C 203.773,365.279 208.44,357.113 208.5,346.5C 208.5,346.167 208.5,345.833 208.5,345.5 Z"/></g>
<g><path style="opacity:1" fill="#335f2d" d="M 159.5,359.5 C 161.61,363.502 162.943,367.835 163.5,372.5C 157.729,373.113 152.396,372.446 147.5,370.5C 152.214,370.827 156.88,370.493 161.5,369.5C 160.449,366.243 159.782,362.91 159.5,359.5 Z"/></g>
<g><path style="opacity:1" fill="#104b0d" d="M 112.5,331.5 C 114.984,333.12 116.484,335.453 117,338.5C 119.551,349.086 115.717,355.752 105.5,358.5C 102.167,358.5 98.8333,358.5 95.5,358.5C 95.5,362.833 95.5,367.167 95.5,371.5C 90.5,371.5 85.5,371.5 80.5,371.5C 80.5,371.167 80.5,370.833 80.5,370.5C 80.8333,370.5 81.1667,370.5 81.5,370.5C 85.5,370.5 89.5,370.5 93.5,370.5C 93.5,366.167 93.5,361.833 93.5,357.5C 113.955,359.271 120.289,350.604 112.5,331.5 Z"/></g>
<g><path style="opacity:1" fill="#0f4b0d" d="M 283.5,366.5 C 280.428,366.183 277.428,366.516 274.5,367.5C 273.754,368.736 273.421,370.07 273.5,371.5C 267.974,371.821 262.64,371.488 257.5,370.5C 262.167,370.5 266.833,370.5 271.5,370.5C 271.5,368.833 271.5,367.167 271.5,365.5C 275.702,365.183 279.702,365.517 283.5,366.5 Z"/></g>
<g><path style="opacity:1" fill="#12500e" d="M 300.5,363.5 C 301.738,365.214 302.405,367.214 302.5,369.5C 297.944,371.442 292.944,372.108 287.5,371.5C 287.5,371.167 287.5,370.833 287.5,370.5C 291.833,370.5 296.167,370.5 300.5,370.5C 300.5,368.167 300.5,365.833 300.5,363.5 Z"/></g>
<g><path style="opacity:1" fill="#6d856d" d="M 257.5,370.5 C 262.64,371.488 267.974,371.821 273.5,371.5C 267.987,372.816 262.32,372.816 256.5,371.5C 256.624,370.893 256.957,370.56 257.5,370.5 Z"/></g>
<g><path style="opacity:1" fill="#657e65" d="M 302.5,369.5 C 303.404,370.209 303.737,371.209 303.5,372.5C 297.974,372.821 292.64,372.488 287.5,371.5C 292.944,372.108 297.944,371.442 302.5,369.5 Z"/></g>
</svg>
